<?xml version="1.0" encoding="utf-8"?>
<svg xmlns="http://www.w3.org/2000/svg" viewBox="0 0 1536 200" xmlns:bx="https://boxy-svg.com">
  <defs>
    <bx:export>
      <bx:file format="svg" href="#object-0" path="Sem título.svg" excluded="true"/>
      <bx:file format="svg" href="#object-0" path="Sem título 2.svg" excluded="true"/>
      <bx:file format="svg" href="#object-1" path="Sem título 3.svg" excluded="true"/>
      <bx:file format="svg" href="#object-0" path="Sem título 4.svg"/>
      <bx:file format="svg" href="#object-1" path="Sem título 5.svg"/>
    </bx:export>
  </defs>
  <path fill="#DA9A78" opacity="1.000000" stroke="none" d="M -35.979 40.668 C 24.366 40.488 78.974 50.847 133.771 61.36 C 201.496 74.357 268.652 88.43 338.29 98.716 C 421.174 110.966 504.041 105.457 583.662 89.477 C 651.567 75.853 717.768 59.906 787.37 48.692 C 897.919 30.879 1008.21 34.913 1115.52 57.002 C 1176.26 69.506 1237.18 81.881 1299.03 93.097 C 1376.49 107.143 1455.33 107.417 1534.25 94.772 C 1537.2 94.299 1540.44 94.191 1544.76 93.885 C 1545.92 114.343 1545.85 134.835 1545.75 156.027 C 1514.48 159.601 1483.51 163.587 1451.93 165.012 C 1424.6 166.253 1396.01 166.199 1369.14 163.836 C 1329.95 160.391 1290.95 155.47 1253.42 149.12 C 1214.15 142.471 1176.62 133.494 1138.5 125.344 C 1090.97 115.187 1042.31 106.302 990.968 101.997 C 955.071 98.987 918.468 96.446 881.55 101.07 C 848.397 105.226 813.831 107.169 781.378 112.237 C 748.762 117.336 717.787 124.894 686.393 131.709 C 634.257 143.039 582.878 155.317 526.372 161.223 C 506.804 163.27 486.8 164.82 466.828 165.51 C 445.756 166.235 424.522 165.719 403.351 165.652 C 354.716 165.505 308.665 159.303 263.959 151.159 C 224.217 143.921 185.422 135.51 146.529 127.251 C 93.639 116.007 39.081 107.185 -17.655 101.45 C -22.717 100.941 -28.196 101.34 -34.841 101.329 C -36.147 81.35 -36.065 61.359 -35.979 40.668 Z" id="object-0" style=""/>
  <path fill="#C9753F" opacity="1.000000" stroke="none" d="M -33.242 2.448 C -15.835 3.062 1.729 3.971 18.903 5.578 C 47.119 8.218 76.161 10.192 102.985 14.445 C 160.191 23.523 215.493 34.637 272.955 43.427 C 307.426 48.696 344.095 51.955 380.44 54.602 C 405.913 56.453 432.659 56.694 458.52 55.897 C 482.956 55.142 508.028 53.238 531.024 49.827 C 588.189 41.345 644.73 32.079 700.834 22.461 C 780.488 8.811 861.595 -2.023 949.248 0.765 C 982.636 1.827 1015.66 4.967 1048.6 7.63 C 1103.8 12.098 1152.84 23.254 1203.94 32.136 C 1267.11 43.106 1330.68 53.636 1400.61 54.925 C 1450.62 55.846 1499.18 52.334 1547.88 45.998 C 1548.9 65.255 1548.81 84.689 1547.47 104.751 C 1543.1 105.622 1539.89 105.715 1536.96 106.124 C 1458.02 117.049 1379.16 116.813 1301.7 104.676 C 1239.84 94.984 1178.9 84.289 1118.16 73.481 C 1010.84 54.394 900.523 50.908 789.961 66.301 C 720.341 75.993 654.136 89.773 586.221 101.546 C 506.583 115.356 423.706 120.117 340.806 109.53 C 271.162 100.642 203.997 88.481 136.26 77.25 C 81.455 68.164 26.837 59.211 -33.513 58.761 C -33.421 40.192 -33.33 21.625 -33.242 2.448 Z" id="object-1" style=""/>
  <path fill="#C9753F" opacity="1.000000" stroke="none" d="M -16.492 100.055 C 0.91 100.584 18.472 101.366 35.652 102.752 C 63.868 105.024 92.914 106.724 119.734 110.388 C 176.943 118.207 232.24 127.781 289.703 135.351 C 324.174 139.89 360.844 142.699 397.195 144.976 C 422.661 146.571 449.408 146.779 475.269 146.09 C 499.702 145.442 524.779 143.804 547.772 140.864 C 604.94 133.559 661.482 125.579 717.581 117.294 C 797.238 105.536 878.345 96.203 965.997 98.607 C 999.378 99.521 1032.41 102.224 1065.35 104.52 C 1120.55 108.368 1169.59 117.975 1220.69 125.624 C 1283.87 135.076 1347.42 144.145 1417.36 145.255 C 1467.36 146.05 1515.93 143.022 1564.63 137.565 C 1565.64 154.153 1565.55 170.889 1564.21 188.17 C 1559.87 188.921 1556.65 189.001 1553.71 189.352 C 1474.77 198.763 1395.91 198.56 1318.45 188.107 C 1256.58 179.757 1195.65 170.547 1134.91 161.239 C 1027.59 144.799 917.271 141.793 806.714 155.055 C 737.093 163.401 670.883 175.27 602.969 185.41 C 523.335 197.305 440.455 201.405 357.555 192.288 C 287.911 184.632 220.749 174.158 153.009 164.485 C 98.206 156.658 43.589 148.947 -16.763 148.558 C -16.675 132.566 -16.58 116.571 -16.492 100.055 Z" id="path-1" style=""/>
</svg>